<?xml version="1.0" encoding="utf-8"?>
<!-- Generator: Adobe Illustrator 23.0.2, SVG Export Plug-In . SVG Version: 6.00 Build 0)  -->
<svg version="1.1" id="Warstwa_1" xmlns="http://www.w3.org/2000/svg" xmlns:xlink="http://www.w3.org/1999/xlink" x="0px" y="0px"
	 viewBox="0 0 284.9 99" style="enable-background:new 0 0 284.9 99;" xml:space="preserve">
<style type="text/css">
	.st0{fill:#FFFFFF;}
</style>
<g>
	<path class="st0" d="M0.3,53v-7.2c3,1.5,7,2.9,11.2,3c1.5,0,3-0.1,4.2-0.5c3-0.7,4.8-2.2,4.8-4.5c0-3.3-2.4-5.2-8.8-7.4
		C4,33.6-0.1,30.4-0.1,23.5c0-7.4,6.1-11.8,14.7-11.8c4.2,0,8.3,1.1,10.8,2.1v6.9c-2.4-1.3-6.4-2.5-10.2-2.5c-4.8,0-8,2-8,5.2
		c0,3,2.2,5,8.7,7.3c7.7,2.9,11.9,6.1,11.9,12.8c0,7.4-5.6,11.8-15.1,11.8C7.8,55.4,3.3,54.2,0.3,53z"/>
	<path class="st0" d="M79.9,53v-7.2c3,1.5,7,2.9,11.2,3c1.5,0,3-0.1,4.2-0.5c3-0.7,4.8-2.2,4.8-4.5c0-3.3-2.4-5.2-8.8-7.4
		c-7.7-2.8-11.8-6-11.8-12.9c0-7.4,6.1-11.8,14.7-11.8c4.2,0,8.3,1.1,10.8,2.1v6.9c-2.4-1.3-6.4-2.5-10.2-2.5c-4.8,0-8,2-8,5.2
		c0,3,2.2,5,8.7,7.3c7.7,2.9,11.9,6.1,11.9,12.8c0,7.4-5.6,11.8-15.1,11.8C87.4,55.4,82.8,54.2,79.9,53z"/>
	<path class="st0" d="M122.4,54.6V12.4h26.5v6.2h-19.2v11.6h16.2v6h-16.2v12.1h20v6.2L122.4,54.6L122.4,54.6z"/>
	<path class="st0" d="M199.1,55.2L174.4,30c-0.6-0.6-1.3-1.3-2.1-1.9v26.5H165V11.8h0.2L189.8,37l2.1,2V12.5h7.3v42.8L199.1,55.2
		L199.1,55.2z"/>
	<path class="st0" d="M215.1,53v-7.2c3,1.5,7,2.9,11.2,3c1.5,0,3-0.1,4.2-0.5c3-0.7,4.8-2.2,4.8-4.5c0-3.3-2.4-5.2-8.8-7.4
		c-7.7-2.8-11.8-6-11.8-12.9c0-7.4,6.1-11.8,14.7-11.8c4.2,0,8.3,1.1,10.8,2.1v6.9c-2.4-1.3-6.4-2.5-10.2-2.5c-4.8,0-8,2-8,5.2
		c0,3,2.2,5,8.7,7.3c7.7,2.9,11.9,6.1,11.9,12.8c0,7.4-5.6,11.8-15.1,11.8C222.6,55.4,218,54.2,215.1,53z"/>
	<path class="st0" d="M257.6,54.6V12.4h26.5v6.2h-19.2v11.6h16.2v6h-16.2v12.1h20v6.2L257.6,54.6L257.6,54.6z"/>
</g>
<g>
	<path class="st0" d="M11.8,93.9c0,3-2.4,4.8-6,4.8h-5.9V81.8h5.3c3.4,0,5.9,1.7,5.9,4.7c0,1.5-0.9,2.8-2.1,3.3
		C10.6,90.4,11.8,92,11.8,93.9z M5.3,89c0.5,0,1,0,1.4-0.1c0.9-0.3,1.4-1.1,1.4-2.2c0-1.6-1.1-2.5-2.7-2.5H2.8V89L5.3,89L5.3,89z
		 M2.8,96.4H6c1.7,0,2.9-1,2.9-2.6c0-1.7-1.1-2.6-2.6-2.6H2.8V96.4z"/>
	<path class="st0" d="M30.4,81.9c3.8,0,6.2,1.9,6.2,5.4c0,2.5-1.5,4.1-3.3,4.8l3.7,6.7h-3.2l-3.2-6.3h-3v6.3h-2.9V81.9H30.4z
		 M27.6,84.4v5.7h3c1.9,0,3.1-1,3.1-2.9s-1.3-2.9-3.3-2.9L27.6,84.4L27.6,84.4z"/>
	<path class="st0" d="M56.1,81.6L56.1,81.6l8.1,17.1h-3.1l-1.5-3.3h-6.9l-1.5,3.3h-3.1L56.1,81.6z M58.6,93.2c-1-2.2-1.8-4.1-2.5-6
		c-0.7,1.8-1.6,3.9-2.5,6H58.6z"/>
	<path class="st0" d="M90.4,99l-9.9-10.1c-0.3-0.2-0.5-0.5-0.8-0.7v10.5h-2.9V81.6h0.1l9.9,10.1l0.8,0.8V81.9h2.9L90.4,99L90.4,99z"
		/>
	<path class="st0" d="M105.2,98.7V81.8h5.1c5.6,0,9.2,3.4,9.2,8.4s-3.6,8.4-9.1,8.4h-5.2V98.7z M108.1,84.4v11.9h2.2
		c3.8,0,6.2-2.5,6.2-5.9c0-3.5-2.4-5.9-6.3-5.9h-2.1V84.4z"/>
	<path class="st0" d="M149.1,98.1v-2.9c1.2,0.6,2.8,1.2,4.5,1.2c0.6,0,1.2,0,1.7-0.2c1.2-0.3,1.9-0.9,1.9-1.8c0-1.3-1-2.1-3.5-3
		c-3.1-1.1-4.7-2.4-4.7-5.2c0-3,2.5-4.7,5.9-4.7c1.7,0,3.3,0.4,4.3,0.8v2.8c-1-0.5-2.6-1-4.1-1c-1.9,0-3.2,0.8-3.2,2.1
		c0,1.2,0.9,2,3.5,2.9c3.1,1.1,4.8,2.5,4.8,5.1c0,3-2.2,4.7-6,4.7C152.1,99,150.2,98.6,149.1,98.1z"/>
	<path class="st0" d="M179.6,84.4v14.3h-3V84.3h-4.9v-2.5h12.8v2.5h-4.9V84.4z"/>
	<path class="st0" d="M210,92.7c0,3.9-2.5,6.3-6.8,6.3c-4.2,0-6.8-2.4-6.8-6.3V81.9h2.9v10.6c0,2.4,1.4,3.9,3.8,3.9s3.8-1.4,3.8-3.9
		V81.9h2.9v10.8H210z"/>
	<path class="st0" d="M223.9,98.7V81.8h5.1c5.6,0,9.2,3.4,9.2,8.4s-3.6,8.4-9.1,8.4h-5.2V98.7z M226.8,84.4v11.9h2.2
		c3.8,0,6.2-2.5,6.2-5.9c0-3.5-2.4-5.9-6.3-5.9h-2.1V84.4z"/>
	<path class="st0" d="M251.4,98.7V81.8h2.9v16.9H251.4z"/>
	<path class="st0" d="M276.2,81.6c4.9,0,8.7,3.8,8.7,8.7c0,4.9-3.7,8.7-8.7,8.7s-8.7-3.8-8.7-8.7C267.5,85.5,271.2,81.6,276.2,81.6z
		 M276.2,96.3c3.3,0,5.8-2.6,5.8-6s-2.4-6-5.8-6c-3.3,0-5.8,2.6-5.8,6S272.9,96.3,276.2,96.3z"/>
</g>
<polygon class="st0" points="44.9,0 44.8,0 38.3,10.3 44.8,20.7 44.9,20.7 51.3,10.3 "/>
</svg>
